<svg width="38" height="38" viewBox="0 0 38 38" fill="none" xmlns="http://www.w3.org/2000/svg">
<path d="M20.6179 10.6626C20.6179 8.05997 21.3906 5.9453 22.9359 4.31863C24.4812 2.7733 26.5552 2.00063 29.1579 2.00063C32.4112 2.00063 34.6886 3.0173 35.9899 5.05064C37.2912 7.1653 37.9419 9.7273 37.9419 12.7366C37.9419 15.014 37.4539 17.576 36.4779 20.4226C35.5019 23.3506 34.2412 26.1566 32.6959 28.8406C31.1506 31.5246 29.5646 33.68 27.9379 35.3066L25.7419 34.5746C27.1246 32.2973 28.3852 29.4506 29.5239 26.0346C30.6626 22.6186 31.1912 19.528 31.1099 16.7626V16.3966C30.7032 16.966 30.1746 17.332 29.5239 17.4946C28.7919 17.6573 28.1412 17.7386 27.5719 17.7386C25.7012 17.7386 24.0746 17.0066 22.6919 15.5426C21.3092 14.0786 20.6179 12.452 20.6179 10.6626ZM-0.000110626 10.6626C-0.000110626 8.05997 0.772559 5.9453 2.31789 4.31863C3.86323 2.7733 5.93723 2.00063 8.53989 2.00063C11.7932 2.00063 14.0706 3.0173 15.3719 5.05064C16.6732 7.1653 17.3239 9.7273 17.3239 12.7366C17.3239 15.014 16.8359 17.576 15.8599 20.4226C14.8839 23.3506 13.6232 26.1566 12.0779 28.8406C10.5326 31.5246 8.94656 33.68 7.31989 35.3066L5.12389 34.5746C6.50656 32.2973 7.76723 29.4506 8.90589 26.0346C10.0446 22.6186 10.5732 19.528 10.4919 16.7626V16.3966C10.0852 16.966 9.55656 17.332 8.90589 17.4946C8.17389 17.6573 7.52323 17.7386 6.95389 17.7386C5.08322 17.7386 3.45656 17.0066 2.07389 15.5426C0.691226 14.0786 -0.000110626 12.452 -0.000110626 10.6626Z" fill="white"/>
</svg>
