<svg id="Make_an_impact" data-name="Make an impact" xmlns="http://www.w3.org/2000/svg" width="59.893" height="86.703" viewBox="0 0 59.893 86.703">
  <path id="Path_84" data-name="Path 84" d="M23.28,66.609h-7.13V45.218H30.409V66.609Z" transform="translate(6.667 18.667)" fill="#30c5ef"/>
  <path id="Path_85" data-name="Path 85" d="M31.993,52.01H12.314V34.041a5.264,5.264,0,0,1,5.277-5.275H32.136a5.264,5.264,0,0,1,5.277,5.275V52.01Z" transform="translate(5.083 11.875)" fill="#30c5ef"/>
  <path id="Path_86" data-name="Path 86" d="M23.279,14.938a7.13,7.13,0,1,1-7.13,7.13,7.13,7.13,0,0,1,7.13-7.13" transform="translate(6.667 6.167)" fill="#30c5ef"/>
  <path id="Path_87" data-name="Path 87" d="M37.829,53.853H32.41a1.426,1.426,0,0,1,0-2.852H36.4V34.458a3.833,3.833,0,0,0-3.85-3.848H18.007a3.833,3.833,0,0,0-3.85,3.848V51H18.15a1.426,1.426,0,0,1,0,2.852h-5.42a1.347,1.347,0,0,1-1.426-1.427V34.458a6.694,6.694,0,0,1,6.7-6.7H32.552a6.693,6.693,0,0,1,6.7,6.7V52.426a1.534,1.534,0,0,1-1.426,1.427" transform="translate(4.667 11.459)" fill="#196fa7"/>
  <path id="Path_88" data-name="Path 88" d="M26.66,68.452a1.348,1.348,0,0,1-1.426-1.427V45.636a1.426,1.426,0,1,1,2.851,0v21.39a1.429,1.429,0,0,1-1.426,1.427" transform="translate(10.417 18.251)" fill="#196fa7"/>
  <path id="Path_89" data-name="Path 89" d="M16.566,68.452a1.348,1.348,0,0,1-1.426-1.427V45.636a1.426,1.426,0,1,1,2.851,0v21.39a1.43,1.43,0,0,1-1.426,1.427" transform="translate(6.25 18.251)" fill="#1767a0"/>
  <path id="Path_90" data-name="Path 90" d="M30.826,49.686H16.567A1.347,1.347,0,0,1,15.14,48.26V39.277a1.426,1.426,0,1,1,2.852,0v7.557H29.4V39.277a1.426,1.426,0,1,1,2.851,0V48.26a1.429,1.429,0,0,1-1.426,1.427" transform="translate(6.25 15.625)" fill="#1767a0"/>
  <path id="Path_91" data-name="Path 91" d="M21.613,65.869a1.347,1.347,0,0,1-1.426-1.427V51.894a1.426,1.426,0,1,1,2.851,0V64.442a1.43,1.43,0,0,1-1.426,1.427" transform="translate(8.333 20.834)" fill="#1767a0"/>
  <path id="Path_92" data-name="Path 92" d="M23.7,31.042a8.557,8.557,0,1,1,8.556-8.557A8.582,8.582,0,0,1,23.7,31.042m0-14.261a5.7,5.7,0,1,0,5.7,5.7,5.72,5.72,0,0,0-5.7-5.7" transform="translate(6.25 5.751)" fill="#1767a0"/>
  <path id="Path_93" data-name="Path 93" d="M21.108,6.845a1.348,1.348,0,0,1-1.426-1.427V1.426a1.426,1.426,0,0,1,2.851,0V5.418a1.348,1.348,0,0,1-1.426,1.427" transform="translate(8.125 0.001)" fill="#1e81ce"/>
  <path id="Path_94" data-name="Path 94" d="M17.172,8.415a1.3,1.3,0,0,1-1-.428,1.38,1.38,0,0,1,0-2L21.735.429a1.375,1.375,0,0,1,2,0,1.378,1.378,0,0,1,0,2L18.169,7.986a1.059,1.059,0,0,1-1,.428" transform="translate(6.5 0.001)" fill="#1767a0"/>
  <path id="Path_95" data-name="Path 95" d="M26.67,8.415a1.3,1.3,0,0,1-1-.428L20.11,2.426a1.378,1.378,0,0,1,0-2,1.375,1.375,0,0,1,2,0L27.669,5.99a1.38,1.38,0,0,1,0,2c-.144.428-.571.428-1,.428" transform="translate(8.125 0.001)" fill="#1767a0"/>
  <path id="Path_96" data-name="Path 96" d="M21.108,15.09a1.347,1.347,0,0,1-1.426-1.426V4.252a1.426,1.426,0,1,1,2.851,0v9.412a1.347,1.347,0,0,1-1.426,1.426" transform="translate(8.125 1.167)" fill="#1767a0"/>
  <path id="Path_97" data-name="Path 97" d="M41.251,21.828H37.258a1.426,1.426,0,1,1,0-2.852h3.993A1.347,1.347,0,0,1,42.676,20.4a1.533,1.533,0,0,1-1.426,1.427" transform="translate(14.791 7.834)" fill="#1e81ce"/>
  <path id="Path_98" data-name="Path 98" d="M41.708,23.454a1.3,1.3,0,0,1-1-.428l-5.561-5.561a1.412,1.412,0,0,1,2-2l5.561,5.561a1.378,1.378,0,0,1,0,2,1.542,1.542,0,0,1-1,.428" transform="translate(14.333 6.209)" fill="#1767a0"/>
  <path id="Path_99" data-name="Path 99" d="M36.047,27.39a1.3,1.3,0,0,1-1-.428,1.38,1.38,0,0,1,0-2L40.61,19.4a1.412,1.412,0,0,1,2,2l-5.562,5.561a1.3,1.3,0,0,1-1,.428" transform="translate(14.292 7.834)" fill="#1767a0"/>
  <path id="Path_100" data-name="Path 100" d="M40.008,21.828H30.6a1.426,1.426,0,0,1,0-2.852h9.412A1.348,1.348,0,0,1,41.435,20.4a1.535,1.535,0,0,1-1.427,1.427" transform="translate(12.042 7.834)" fill="#1767a0"/>
  <path id="Path_101" data-name="Path 101" d="M6.126,21.828H2.133a1.426,1.426,0,1,1,0-2.852H6.126A1.347,1.347,0,0,1,7.551,20.4a1.43,1.43,0,0,1-1.426,1.427" transform="translate(0.291 7.834)" fill="#1e81ce"/>
  <path id="Path_102" data-name="Path 102" d="M7.795,27.39a1.3,1.3,0,0,1-1-.428L1.235,21.4a1.378,1.378,0,0,1,0-2,1.375,1.375,0,0,1,2,0l5.561,5.561a1.378,1.378,0,0,1,0,2,1.545,1.545,0,0,1-1,.428" transform="translate(0.333 7.834)" fill="#1767a0"/>
  <path id="Path_103" data-name="Path 103" d="M2.133,23.454a1.3,1.3,0,0,1-1-.428,1.38,1.38,0,0,1,0-2L6.7,15.468a1.412,1.412,0,0,1,2,2L3.131,23.025a1.3,1.3,0,0,1-1,.428" transform="translate(0.292 6.209)" fill="#1767a0"/>
  <path id="Path_104" data-name="Path 104" d="M14.371,21.828H4.959a1.426,1.426,0,0,1,0-2.852h9.412A1.347,1.347,0,0,1,15.8,20.4a1.43,1.43,0,0,1-1.426,1.427" transform="translate(1.459 7.834)" fill="#1767a0"/>
  <path id="Path_105" data-name="Path 105" d="M32.514,11.256a1.3,1.3,0,0,1-1-.429,1.38,1.38,0,0,1,0-2l2.852-2.851a1.412,1.412,0,1,1,2,2l-2.852,2.851a1.54,1.54,0,0,1-1,.429" transform="translate(12.833 2.292)" fill="#1e81ce"/>
  <path id="Path_106" data-name="Path 106" d="M36.866,8.4H28.881a1.347,1.347,0,0,1-1.427-1.426,1.349,1.349,0,0,1,1.427-1.427h7.985a1.348,1.348,0,0,1,1.426,1.427A1.427,1.427,0,0,1,36.866,8.4" transform="translate(11.333 2.292)" fill="#1767a0"/>
  <path id="Path_107" data-name="Path 107" d="M34.533,16.389a1.347,1.347,0,0,1-1.426-1.426V6.978a1.426,1.426,0,1,1,2.851,0v7.985a1.532,1.532,0,0,1-1.426,1.426" transform="translate(13.667 2.292)" fill="#1767a0"/>
  <path id="Path_108" data-name="Path 108" d="M27.77,17.125a1.292,1.292,0,0,1-1-.428,1.378,1.378,0,0,1,0-2l6.7-6.7a1.412,1.412,0,0,1,2,2l-6.7,6.7a1.3,1.3,0,0,1-1,.428" transform="translate(10.875 3.126)" fill="#1767a0"/>
  <path id="Path_109" data-name="Path 109" d="M10.536,11.256a1.3,1.3,0,0,1-1-.429L6.685,7.975a1.412,1.412,0,0,1,2-2L11.534,8.83a1.378,1.378,0,0,1,0,2,1.294,1.294,0,0,1-1,.429" transform="translate(2.583 2.292)" fill="#1e81ce"/>
  <path id="Path_110" data-name="Path 110" d="M7.684,16.389a1.347,1.347,0,0,1-1.426-1.426V6.978A1.348,1.348,0,0,1,7.684,5.551,1.347,1.347,0,0,1,9.109,6.978v7.985a1.427,1.427,0,0,1-1.426,1.426" transform="translate(2.583 2.292)" fill="#1767a0"/>
  <path id="Path_111" data-name="Path 111" d="M15.669,8.4H7.684A1.347,1.347,0,0,1,6.257,6.978,1.349,1.349,0,0,1,7.684,5.551h7.985a1.348,1.348,0,0,1,1.426,1.427A1.347,1.347,0,0,1,15.669,8.4" transform="translate(2.583 2.292)" fill="#1767a0"/>
  <path id="Path_112" data-name="Path 112" d="M16.4,17.125a1.3,1.3,0,0,1-1-.428l-6.7-6.7a1.412,1.412,0,0,1,2-2l6.7,6.7a1.378,1.378,0,0,1,0,2,1.535,1.535,0,0,1-1,.428" transform="translate(3.417 3.126)" fill="#1767a0"/>
  <path id="Path_113" data-name="Path 113" d="M58.466,62.2H1.426a1.427,1.427,0,0,1,0-2.854H58.466a1.349,1.349,0,0,1,1.426,1.427A1.43,1.43,0,0,1,58.466,62.2" transform="translate(0 24.5)" fill="#1767a0"/>
  <rect id="Rectangle_116" data-name="Rectangle 116" width="59.893" height="86.703" transform="translate(0)" fill="none"/>
</svg>
