<svg id="Key_Beneficiaries_icon" data-name="Key Beneficiaries icon" xmlns="http://www.w3.org/2000/svg" xmlns:xlink="http://www.w3.org/1999/xlink" width="75.469" height="83.086" viewBox="0 0 75.469 83.086">
  <defs>
    <clipPath id="clip-path">
      <rect id="Rectangle_442" data-name="Rectangle 442" width="75.469" height="83.086" fill="none"/>
    </clipPath>
  </defs>
  <g id="Group_723" data-name="Group 723" transform="translate(0 0)">
    <g id="Group_722" data-name="Group 722" clip-path="url(#clip-path)">
      <path id="Path_520" data-name="Path 520" d="M46.511,5.8l8.594,4.962,9,5.2a.826.826,0,0,1,.185,1.287,7.865,7.865,0,0,0-1.635,2.56.825.825,0,0,1-1.182.414L52.6,15.093l-8.172-4.719a.828.828,0,0,1-.279-1.168,7.781,7.781,0,0,0,1.141-2.842A.827.827,0,0,1,46.511,5.8M72.649,31.162V51.123a.825.825,0,0,1-1,.807,7.911,7.911,0,0,0-1.667-.177,8.006,8.006,0,0,0-1.379.12.826.826,0,0,1-.971-.814V31.224a.827.827,0,0,1,.971-.814,7.911,7.911,0,0,0,3.046-.057.826.826,0,0,1,1,.808M64.11,66.324l-9,5.2-8.594,4.962a.827.827,0,0,1-1.226-.564,7.8,7.8,0,0,0-1.141-2.843.824.824,0,0,1,.279-1.167l8.172-4.72,8.882-5.128a.827.827,0,0,1,1.183.414,7.878,7.878,0,0,0,1.634,2.561.826.826,0,0,1-.184,1.286M28.61,76.485l-8.594-4.962-9-5.2a.827.827,0,0,1-.185-1.286,7.863,7.863,0,0,0,1.635-2.561.827.827,0,0,1,1.183-.414l8.882,5.128,8.173,4.72a.825.825,0,0,1,.278,1.167,7.824,7.824,0,0,0-1.141,2.843.827.827,0,0,1-1.226.564M2.472,51.123V31.162a.826.826,0,0,1,1-.808,7.917,7.917,0,0,0,3.047.057.825.825,0,0,1,.97.814V51.06a.827.827,0,0,1-.97.815,7.942,7.942,0,0,0-3.047.056.825.825,0,0,1-1-.807M11.011,15.96l9-5.2L28.61,5.8a.827.827,0,0,1,1.226.565,7.781,7.781,0,0,0,1.141,2.842.826.826,0,0,1-.278,1.168l-8.173,4.719-8.882,5.128a.827.827,0,0,1-1.183-.414,7.847,7.847,0,0,0-1.635-2.56.828.828,0,0,1,.185-1.287" transform="translate(0.174 0.401)" fill="#fff" fill-rule="evenodd"/>
      <path id="Path_521" data-name="Path 521" d="M70.156,17.758a5.314,5.314,0,1,0,5.315,5.314,5.313,5.313,0,0,0-5.315-5.314m-32.42,54.7a5.314,5.314,0,1,0,5.314,5.314,5.313,5.313,0,0,0-5.314-5.314M5.314,17.758a5.314,5.314,0,1,0,5.315,5.314,5.313,5.313,0,0,0-5.315-5.314M70.156,54.7a5.314,5.314,0,1,0,5.315,5.315A5.314,5.314,0,0,0,70.156,54.7m-64.842,0a5.314,5.314,0,1,0,5.315,5.315A5.314,5.314,0,0,0,5.314,54.7M37.735,0a5.314,5.314,0,1,0,5.314,5.314A5.313,5.313,0,0,0,37.735,0" transform="translate(0 0)" fill="#30c5ef" fill-rule="evenodd"/>
    </g>
  </g>
  <path id="Polygon_2" data-name="Polygon 2" d="M16,0l4.64,10.288L32,11.459l-8.492,7.529L25.889,30,16,24.365,6.111,30,8.492,18.988,0,11.459l11.36-1.171Z" transform="translate(22 25.086)" fill="#30c5ef"/>
</svg>
