<svg id="Collaborate" xmlns="http://www.w3.org/2000/svg" xmlns:xlink="http://www.w3.org/1999/xlink" width="79.091" height="79.091" viewBox="0 0 79.091 79.091">
  <defs>
    <clipPath id="clip-path">
      <rect id="Rectangle_115" data-name="Rectangle 115" width="79.092" height="79.092" fill="none"/>
    </clipPath>
  </defs>
  <g id="Group_140" data-name="Group 140" transform="translate(0 0)" clip-path="url(#clip-path)">
    <path id="Path_64" data-name="Path 64" d="M13.441,1.009A7.285,7.285,0,1,1,6.157,8.293a7.284,7.284,0,0,1,7.284-7.284" transform="translate(1.778 0.291)" fill="#fff"/>
    <path id="Path_65" data-name="Path 65" d="M51.292,1.009a7.285,7.285,0,1,1-7.284,7.284,7.284,7.284,0,0,1,7.284-7.284" transform="translate(12.71 0.291)" fill="#fff"/>
    <path id="Path_66" data-name="Path 66" d="M41.612,33.038V46.047H36.67c0-.26.13-.521.13-.781a4.033,4.033,0,1,0-8.065,0,1.666,1.666,0,0,0,.129.781H23.921V33.038h3.252l1.691-6.5H23.921v-8.2h4.943c0-.262-.129-.521-.129-.781a4.033,4.033,0,0,1,8.065,0,1.654,1.654,0,0,1-.13.781h4.943v8.2H36.67l1.691,6.5Z" transform="translate(6.909 3.906)" fill="#30c5ef"/>
    <path id="Path_67" data-name="Path 67" d="M32.666,35.024A4.053,4.053,0,0,1,36.7,39.057a1.651,1.651,0,0,1-.13.781h4.944V67.546H36.569c0-.26.13-.521.13-.781a4.033,4.033,0,1,0-8.065,0,1.651,1.651,0,0,0,.13.781H23.82V39.838h4.944c0-.26-.13-.521-.13-.781a4.053,4.053,0,0,1,4.033-4.033" transform="translate(6.879 10.115)" fill="#30c5ef"/>
    <path id="Path_68" data-name="Path 68" d="M57.956,44.819V66.933H43.907V37.144l12.358,5.333a2.5,2.5,0,0,1,1.691,2.342" transform="translate(12.681 10.727)" fill="#fff"/>
    <path id="Path_69" data-name="Path 69" d="M20.61,37.144V66.933H6.561V44.819a2.5,2.5,0,0,1,1.691-2.342Z" transform="translate(1.895 10.727)" fill="#fff"/>
    <path id="Path_70" data-name="Path 70" d="M43.6,32.309H35.4l-1.691-6.5H43.6V21.9a5.83,5.83,0,0,1,5.854-5.854H58.3A5.83,5.83,0,0,1,64.152,21.9V46.749a2.47,2.47,0,0,1-2.472,2.471,1.651,1.651,0,0,1-.781-.13L46.85,43.237,43.6,42.2Z" transform="translate(9.736 4.635)" fill="#fff"/>
    <path id="Path_71" data-name="Path 71" d="M24.591,32.309v9.756l-3.252,1.172L7.29,49.219a2.484,2.484,0,0,1-3.252-2.34V21.9a5.829,5.829,0,0,1,5.854-5.854h8.845A5.83,5.83,0,0,1,24.591,21.9v3.9h9.886l-1.691,6.5h-8.2Z" transform="translate(1.166 4.635)" fill="#fff"/>
    <path id="Path_72" data-name="Path 72" d="M20.873,68.545a1.229,1.229,0,0,1-1.3-1.3V39.406L9.164,43.958H9.035a1.138,1.138,0,0,0-.781,1.172V67.244a1.229,1.229,0,0,1-1.3,1.3,1.229,1.229,0,0,1-1.3-1.3V45.13a3.807,3.807,0,0,1,2.472-3.512l12.228-5.465a1.22,1.22,0,0,1,1.17.13,1.327,1.327,0,0,1,.651,1.041V67.114a1.425,1.425,0,0,1-1.3,1.431" transform="translate(1.632 10.416)" fill="#1767a0"/>
    <path id="Path_73" data-name="Path 73" d="M13.733,17.171a8.585,8.585,0,1,1,8.586-8.586,8.578,8.578,0,0,1-8.586,8.586m0-14.7a5.984,5.984,0,1,0,5.984,5.984,6.053,6.053,0,0,0-5.984-5.984" transform="translate(1.486 0)" fill="#1767a0"/>
    <path id="Path_74" data-name="Path 74" d="M23.184,31.707H18.242a1.85,1.85,0,0,1-.781-.26L9.4,24.942a1.4,1.4,0,0,1-.26-1.821,1.4,1.4,0,0,1,1.821-.259L18.761,29.1h4.423a1.23,1.23,0,0,1,1.3,1.3,1.3,1.3,0,0,1-1.3,1.3" transform="translate(2.573 6.537)" fill="#1767a0"/>
    <path id="Path_75" data-name="Path 75" d="M58.219,68.516a1.228,1.228,0,0,1-1.3-1.3V45.1a1.251,1.251,0,0,0-.781-1.172h-.13L45.6,39.377V67.215a1.3,1.3,0,0,1-2.6,0V37.426a1.162,1.162,0,0,1,.651-1.041,1.265,1.265,0,0,1,1.172-.13l12.227,5.334A3.628,3.628,0,0,1,59.519,45.1V67.215a1.4,1.4,0,0,1-1.3,1.3" transform="translate(12.418 10.446)" fill="#1767a0"/>
    <path id="Path_76" data-name="Path 76" d="M51.584,17.171A8.585,8.585,0,1,1,60.17,8.585a8.579,8.579,0,0,1-8.586,8.586m0-14.7a5.984,5.984,0,1,0,5.984,5.984,6.053,6.053,0,0,0-5.984-5.984" transform="translate(12.418 0)" fill="#1767a0"/>
    <path id="Path_77" data-name="Path 77" d="M46.618,31.716H41.676a1.3,1.3,0,1,1,0-2.6H46.1L53.9,22.871a1.3,1.3,0,1,1,1.561,2.08l-8.2,6.5a.988.988,0,0,1-.65.26" transform="translate(11.66 6.528)" fill="#1767a0"/>
    <path id="Path_78" data-name="Path 78" d="M6.8,50.812a3.54,3.54,0,0,1-2.212-.78A3.713,3.713,0,0,1,3.028,46.91V22.193a7.218,7.218,0,0,1,7.155-7.154h8.845a7.219,7.219,0,0,1,7.155,7.154v2.6h3.641a1.3,1.3,0,1,1,0,2.6H24.882a1.228,1.228,0,0,1-1.3-1.3v-3.9a4.609,4.609,0,0,0-4.553-4.552H10.183A4.609,4.609,0,0,0,5.63,22.193V47.04a.871.871,0,0,0,.519.911.985.985,0,0,0,1.041.129L21.11,42.226h.13l2.342-.78V32.6a1.228,1.228,0,0,1,1.3-1.3h4.943a1.3,1.3,0,1,1,0,2.6H26.184v8.456a1.252,1.252,0,0,1-.911,1.172l-3.252,1.04L8.1,50.682H7.972a3.608,3.608,0,0,1-1.172.13" transform="translate(0.875 4.343)" fill="#1767a0"/>
    <path id="Path_79" data-name="Path 79" d="M60.864,50.812a3.809,3.809,0,0,1-1.172-.26h-.129l-13.92-5.984-3.252-1.04a1.251,1.251,0,0,1-.91-1.172V33.9H37.84a1.3,1.3,0,1,1,0-2.6h4.943a1.228,1.228,0,0,1,1.3,1.3v8.846l2.342.78h.13L60.474,48.21h.391a1.161,1.161,0,0,0,1.172-1.17V22.193a4.61,4.61,0,0,0-4.553-4.552H48.636a4.609,4.609,0,0,0-4.553,4.552v3.9a1.228,1.228,0,0,1-1.3,1.3H37.84a1.3,1.3,0,1,1,0-2.6h3.642v-2.6a7.218,7.218,0,0,1,7.154-7.154h8.846a7.218,7.218,0,0,1,7.154,7.154V47.04a3.775,3.775,0,0,1-3.772,3.772" transform="translate(10.552 4.343)" fill="#1767a0"/>
    <path id="Path_80" data-name="Path 80" d="M41.962,47.668a1.229,1.229,0,0,1-1.3-1.3V34.659H38.711a1.267,1.267,0,0,1-1.3-1.04l-1.691-6.5a1.328,1.328,0,0,1,.26-1.172,1.611,1.611,0,0,1,1.041-.519h3.642V19.83H37.02a1.184,1.184,0,0,1-1.041-.521,1.012,1.012,0,0,1-.26-1.041v-.519a2.748,2.748,0,0,0-2.731-2.732,2.838,2.838,0,0,0-2.732,2.732v.519a1.012,1.012,0,0,1-.26,1.041,1.607,1.607,0,0,1-1.04.521H25.312v5.593h3.642a1.185,1.185,0,0,1,1.04.519,1.249,1.249,0,0,1,.26,1.172l-1.691,6.5a1.4,1.4,0,0,1-1.3,1.04H25.312V46.368a1.3,1.3,0,0,1-2.6,0V33.358a1.228,1.228,0,0,1,1.3-1.3h2.212l1.041-3.9H24.01a1.229,1.229,0,0,1-1.3-1.3v-8.2a1.229,1.229,0,0,1,1.3-1.3h3.642a5.349,5.349,0,0,1,10.667,0h3.642a1.229,1.229,0,0,1,1.3,1.3v8.2a1.228,1.228,0,0,1-1.3,1.3H38.711l1.04,3.9h2.212a1.228,1.228,0,0,1,1.3,1.3V46.368a1.3,1.3,0,0,1-1.3,1.3" transform="translate(6.559 3.585)" fill="#1767a0"/>
    <path id="Path_81" data-name="Path 81" d="M41.962,69.167H37.02a1.186,1.186,0,0,1-1.041-.519,1.012,1.012,0,0,1-.26-1.041v-.521a2.747,2.747,0,0,0-2.731-2.731,2.837,2.837,0,0,0-2.732,2.731V68a1.229,1.229,0,0,1-1.3,1.3H24.01a1.229,1.229,0,0,1-1.3-1.3V40.158a1.228,1.228,0,0,1,1.3-1.3h3.643a5.348,5.348,0,0,1,10.666,0h3.642a1.228,1.228,0,0,1,1.3,1.3V67.866a1.4,1.4,0,0,1-1.3,1.3m-3.642-2.6h2.342V41.46H37.02a1.187,1.187,0,0,1-1.041-.521,1.012,1.012,0,0,1-.26-1.041v-.521a2.747,2.747,0,0,0-2.731-2.731,2.837,2.837,0,0,0-2.732,2.731V39.9A1.014,1.014,0,0,1,30,40.939a1.616,1.616,0,0,1-1.041.521H25.312V66.436h2.342a5.474,5.474,0,0,1,5.333-4.944,5.6,5.6,0,0,1,5.333,5.074" transform="translate(6.559 9.794)" fill="#1767a0"/>
    <path id="Path_82" data-name="Path 82" d="M67.21,61.85H37.941a1.3,1.3,0,1,1,0-2.6H67.21a1.228,1.228,0,0,1,1.3,1.3,1.3,1.3,0,0,1-1.3,1.3" transform="translate(10.582 17.111)" fill="#1767a0"/>
    <path id="Path_83" data-name="Path 83" d="M30.571,61.85H1.3a1.3,1.3,0,1,1,0-2.6H30.571a1.3,1.3,0,1,1,0,2.6" transform="translate(0 17.111)" fill="#1767a0"/>
  </g>
</svg>
