<svg width="38" height="38" viewBox="0 0 38 38" fill="none" xmlns="http://www.w3.org/2000/svg">
<path d="M17.324 26.644C17.324 29.2467 16.5513 31.3613 15.006 32.988C13.4607 34.5333 11.3867 35.306 8.784 35.306C5.53067 35.306 3.25333 34.2893 1.952 32.256C0.650667 30.1413 0 27.5793 0 24.57C0 22.2927 0.488 19.7307 1.464 16.884C2.44 13.956 3.70067 11.15 5.246 8.466C6.79133 5.782 8.37733 3.62667 10.004 2L12.2 2.73201C10.8173 5.00934 9.55667 7.856 8.418 11.272C7.27933 14.688 6.75067 17.7787 6.832 20.544V20.91C7.23867 20.3407 7.76733 19.9747 8.418 19.812C9.15 19.6493 9.80067 19.568 10.37 19.568C12.2407 19.568 13.8673 20.3 15.25 21.764C16.6327 23.228 17.324 24.8547 17.324 26.644ZM37.942 26.644C37.942 29.2467 37.1693 31.3613 35.624 32.988C34.0787 34.5333 32.0047 35.306 29.402 35.306C26.1487 35.306 23.8713 34.2893 22.57 32.256C21.2687 30.1413 20.618 27.5793 20.618 24.57C20.618 22.2927 21.106 19.7307 22.082 16.884C23.058 13.956 24.3187 11.15 25.864 8.466C27.4093 5.782 28.9953 3.62667 30.622 2L32.818 2.73201C31.4353 5.00934 30.1747 7.856 29.036 11.272C27.8973 14.688 27.3687 17.7787 27.45 20.544V20.91C27.8567 20.3407 28.3853 19.9747 29.036 19.812C29.768 19.6493 30.4187 19.568 30.988 19.568C32.8587 19.568 34.4853 20.3 35.868 21.764C37.2507 23.228 37.942 24.8547 37.942 26.644Z" fill="white"/>
</svg>
