<svg xmlns="http://www.w3.org/2000/svg" width="56.754" height="42.565" viewBox="0 0 56.754 42.565">
  <path id="Email" d="M28.377,95.924a8.472,8.472,0,0,1-5.228-1.819L0,76.1v25.14a5.321,5.321,0,0,0,5.321,5.321H51.433a5.321,5.321,0,0,0,5.321-5.321V76.1L33.609,94.117A8.538,8.538,0,0,1,28.377,95.924ZM1.806,73.012l23.522,18.3a4.969,4.969,0,0,0,6.1,0l23.522-18.3a5.008,5.008,0,0,0,1.8-3.691A5.321,5.321,0,0,0,51.433,64H5.321A5.321,5.321,0,0,0,0,69.321,4.68,4.68,0,0,0,1.806,73.012Z" transform="translate(0 -64)" fill="#30c5ef"/>
</svg>
