<svg xmlns="http://www.w3.org/2000/svg" xmlns:xlink="http://www.w3.org/1999/xlink" width="57.051" height="57.05" viewBox="0 0 57.051 57.05">
  <defs>
    <clipPath id="clip-path">
      <rect id="Rectangle_416" data-name="Rectangle 416" width="57.051" height="57.05" fill="none"/>
    </clipPath>
  </defs>
  <g id="Employee_Assistance" data-name="Employee Assistance" transform="translate(0 0)">
    <g id="Group_694" data-name="Group 694" transform="translate(0 0)" clip-path="url(#clip-path)">
      <path id="Path_398" data-name="Path 398" d="M53.547,10.1A4.746,4.746,0,1,1,48.8,14.846,4.747,4.747,0,0,1,53.547,10.1" transform="translate(-2.477 -0.513)" fill="#30c5ef"/>
      <path id="Path_399" data-name="Path 399" d="M29.746,1.4A4.746,4.746,0,1,1,25,6.146,4.746,4.746,0,0,1,29.746,1.4" transform="translate(-1.269 -0.071)" fill="#30c5ef"/>
      <path id="Path_400" data-name="Path 400" d="M6.047,10.1A4.746,4.746,0,1,1,1.3,14.846,4.747,4.747,0,0,1,6.047,10.1" transform="translate(-0.066 -0.513)" fill="#30c5ef"/>
      <path id="Path_401" data-name="Path 401" d="M35.137,55.068a1.372,1.372,0,0,1-.664-.19,1.119,1.119,0,0,1-.285-1.614l8.828-12.34c0-.095.095-.095.095-.19a3.672,3.672,0,0,1,2.564-1.044h3.606V33.425a4.8,4.8,0,0,1-1.233.19H42.067a1.234,1.234,0,1,1,0-2.468h5.981a1.35,1.35,0,0,0,.569-.19l1.139-.664a1.408,1.408,0,0,1,1.234,0,1.089,1.089,0,0,1,.57,1.044v9.3a1.257,1.257,0,0,1-1.234,1.234H45.579a1.078,1.078,0,0,0-.759.285L36.086,54.4a.988.988,0,0,1-.949.664" transform="translate(-1.723 -1.53)" fill="#1767a0"/>
      <path id="Path_402" data-name="Path 402" d="M38.637,58.012a1.76,1.76,0,0,1-.664-.19,1.119,1.119,0,0,1-.285-1.614l8.165-11.771a1.166,1.166,0,0,1,.949-.475H54.11a2.35,2.35,0,0,0,2.373-2.373V27.351A2.463,2.463,0,0,0,54.2,24.978h-.19a2.377,2.377,0,0,0-1.709.759c-.095.095-.19.19-.284.19L48.13,28.3a1.345,1.345,0,0,1-.57.19H41.106a1.234,1.234,0,1,0,0,2.468,1.234,1.234,0,0,1,0,2.468,3.607,3.607,0,1,1,0-7.214h6.17l3.511-2.088A4.612,4.612,0,0,1,54.015,22.7H54.3a4.722,4.722,0,0,1,4.556,4.746V41.685a4.7,4.7,0,0,1-4.746,4.746H47.37L39.586,57.538a1.168,1.168,0,0,1-.949.475" transform="translate(-1.901 -1.152)" fill="#1767a0"/>
      <path id="Path_403" data-name="Path 403" d="M53.481,20.761A6.017,6.017,0,0,1,47.5,14.78a5.981,5.981,0,0,1,11.962,0,6.017,6.017,0,0,1-5.98,5.98m0-9.493a3.607,3.607,0,1,0,3.607,3.607,3.668,3.668,0,0,0-3.607-3.607" transform="translate(-2.411 -0.447)" fill="#1767a0"/>
      <path id="Path_404" data-name="Path 404" d="M23.923,55.078a1.167,1.167,0,0,1-.949-.475L14.241,42.358a1.078,1.078,0,0,0-.759-.285H8.735A1.257,1.257,0,0,1,7.5,40.839v-9.3a1.09,1.09,0,0,1,.571-1.044,1.408,1.408,0,0,1,1.234,0l1.139.664a1.345,1.345,0,0,0,.569.19h5.98a1.234,1.234,0,1,1,0,2.468h-5.98a6.535,6.535,0,0,1-1.233-.19V39.8h3.606a3.672,3.672,0,0,1,2.564,1.044.332.332,0,0,1,.094.19l8.829,12.34a1.106,1.106,0,0,1-.286,1.614c-.189,0-.475.095-.664.095" transform="translate(-0.381 -1.54)" fill="#1767a0"/>
      <path id="Path_405" data-name="Path 405" d="M20.22,58.007a1.167,1.167,0,0,1-.949-.475l-7.784-11.2H4.746A4.7,4.7,0,0,1,0,41.585V27.346A4.723,4.723,0,0,1,4.557,22.6h.285a4.608,4.608,0,0,1,3.227,1.424l3.512,2.088h6.17a3.607,3.607,0,0,1,0,7.214,1.234,1.234,0,0,1,0-2.468,1.234,1.234,0,0,0,0-2.468H11.3a1.341,1.341,0,0,1-.57-.19L6.835,25.827c-.094-.095-.19-.095-.284-.19a2.377,2.377,0,0,0-1.709-.759h-.19a2.547,2.547,0,0,0-2.279,2.468V41.585a2.351,2.351,0,0,0,2.373,2.373h7.309a1.167,1.167,0,0,1,.949.475l8.069,11.676a1.106,1.106,0,0,1-.284,1.614.824.824,0,0,1-.57.285" transform="translate(0 -1.147)" fill="#1767a0"/>
      <path id="Path_406" data-name="Path 406" d="M5.981,20.761A6.017,6.017,0,0,1,0,14.78a5.981,5.981,0,0,1,11.962,0,6.017,6.017,0,0,1-5.98,5.98m0-9.493a3.607,3.607,0,1,0,3.607,3.607,3.668,3.668,0,0,0-3.607-3.607" transform="translate(0 -0.447)" fill="#1767a0"/>
      <path id="Path_407" data-name="Path 407" d="M41.165,33.768H17.434a1.234,1.234,0,0,1,0-2.468H41.165a1.234,1.234,0,1,1,0,2.468" transform="translate(-0.822 -1.589)" fill="#1767a0"/>
      <path id="Path_408" data-name="Path 408" d="M29.934,58.638A1.257,1.257,0,0,1,28.7,57.4V32.534a1.235,1.235,0,0,1,2.469,0V57.5a1.244,1.244,0,0,1-1.235,1.139" transform="translate(-1.456 -1.589)" fill="#1767a0"/>
      <path id="Path_409" data-name="Path 409" d="M29.68,11.961A6.017,6.017,0,0,1,23.7,5.98a5.981,5.981,0,0,1,11.962,0,6.017,6.017,0,0,1-5.981,5.98m0-9.493a3.607,3.607,0,1,0,3.608,3.607A3.606,3.606,0,0,0,29.68,2.468" transform="translate(-1.203 0)" fill="#1767a0"/>
      <path id="Path_410" data-name="Path 410" d="M38.914,28.134A1.257,1.257,0,0,1,37.68,26.9V23.293a6.487,6.487,0,0,0-2.373-4.936,8.853,8.853,0,0,0-5.885-2.183c-4.556,0-8.353,3.227-8.353,7.119a1.234,1.234,0,1,1-2.467,0c0-5.221,4.746-9.493,10.726-9.493a11.077,11.077,0,0,1,7.5,2.753,8.83,8.83,0,0,1,3.227,6.74V26.9a1.121,1.121,0,0,1-1.139,1.234" transform="translate(-0.944 -0.7)" fill="#1767a0"/>
    </g>
  </g>
</svg>
