<svg xmlns="http://www.w3.org/2000/svg" xmlns:xlink="http://www.w3.org/1999/xlink" width="60.101" height="60.1" viewBox="0 0 60.101 60.1">
  <defs>
    <clipPath id="clip-path">
      <rect id="Rectangle_417" data-name="Rectangle 417" width="60.101" height="60.1" transform="translate(0 0)" fill="none"/>
    </clipPath>
  </defs>
  <g id="Flexible_Work_Schedule" data-name="Flexible Work Schedule" transform="translate(0 0)">
    <g id="Group_696" data-name="Group 696" clip-path="url(#clip-path)">
      <path id="Path_411" data-name="Path 411" d="M53.8,10.1a5,5,0,1,1-5,5,5,5,0,0,1,5-5" fill="#30c5ef"/>
      <path id="Path_412" data-name="Path 412" d="M23.8,21.4l8.7,11.2H16.3L7.5,20.1Z" fill="#30c5ef"/>
      <path id="Path_413" data-name="Path 413" d="M35.2,56.4a1.445,1.445,0,0,1-.7-.2,1.179,1.179,0,0,1-.3-1.7l9.3-13c0-.1.1-.1.1-.2a3.868,3.868,0,0,1,2.7-1.1h3.8V33.6a5.058,5.058,0,0,1-1.3.2H42.5a1.3,1.3,0,0,1,0-2.6h6.3a1.422,1.422,0,0,0,.6-.2l1.2-.7a1.483,1.483,0,0,1,1.3,0,1.147,1.147,0,0,1,.6,1.1v9.8a1.324,1.324,0,0,1-1.3,1.3h-5a1.135,1.135,0,0,0-.8.3L36.2,55.7a1.041,1.041,0,0,1-1,.7" fill="#1767a0"/>
      <path id="Path_414" data-name="Path 414" d="M38.7,59.9a1.854,1.854,0,0,1-.7-.2,1.179,1.179,0,0,1-.3-1.7l8.6-12.4a1.228,1.228,0,0,1,1-.5H55a2.476,2.476,0,0,0,2.5-2.5v-15a2.6,2.6,0,0,0-2.4-2.5h-.2a2.5,2.5,0,0,0-1.8.8c-.1.1-.2.2-.3.2l-4.1,2.5a1.417,1.417,0,0,1-.6.2H41.3a1.3,1.3,0,1,0,0,2.6,1.3,1.3,0,0,1,0,2.6,3.8,3.8,0,1,1,0-7.6h6.5l3.7-2.2a4.859,4.859,0,0,1,3.4-1.5h.3a4.975,4.975,0,0,1,4.8,5v15a4.951,4.951,0,0,1-5,5H47.9L39.7,59.4a1.231,1.231,0,0,1-1,.5" fill="#1767a0"/>
      <path id="Path_415" data-name="Path 415" d="M53.8,21.4a6.339,6.339,0,0,1-6.3-6.3,6.3,6.3,0,0,1,12.6,0,6.339,6.339,0,0,1-6.3,6.3m0-10a3.8,3.8,0,1,0,3.8,3.8,3.864,3.864,0,0,0-3.8-3.8" fill="#1767a0"/>
      <path id="Path_416" data-name="Path 416" d="M42.5,33.9H1.3a1.3,1.3,0,1,1,0-2.6H42.5a1.3,1.3,0,1,1,0,2.6" fill="#1767a0"/>
      <path id="Path_417" data-name="Path 417" d="M7.5,60.1a1.324,1.324,0,0,1-1.3-1.3V32.6a1.3,1.3,0,0,1,2.6,0V58.9a1.31,1.31,0,0,1-1.3,1.2" fill="#1767a0"/>
      <path id="Path_418" data-name="Path 418" d="M30,60.1a1.324,1.324,0,0,1-1.3-1.3V32.6a1.3,1.3,0,0,1,2.6,0V58.9A1.31,1.31,0,0,1,30,60.1" fill="#1767a0"/>
      <path id="Path_419" data-name="Path 419" d="M16.3,33.9a1.229,1.229,0,0,1-1-.5L6.5,20.8a1.227,1.227,0,0,1-.1-1.3,1.141,1.141,0,0,1,1.2-.6l16.3,1.3a1.05,1.05,0,0,1,.9.5l8.7,11.1a1.281,1.281,0,1,1-2,1.6L23.1,22.6,10,21.6l7.2,10.3a1.165,1.165,0,0,1-.3,1.7.868.868,0,0,1-.6.3" fill="#1767a0"/>
      <path id="Path_420" data-name="Path 420" d="M32.5,17.6a8.8,8.8,0,1,1,8.8-8.8,8.813,8.813,0,0,1-8.8,8.8m0-15a6.339,6.339,0,0,0-6.3,6.3,6.3,6.3,0,0,0,12.6,0,6.339,6.339,0,0,0-6.3-6.3" fill="#1767a0"/>
      <path id="Path_421" data-name="Path 421" d="M35,12.6a1.218,1.218,0,0,1-.9-.4L31.6,9.7a1.485,1.485,0,0,1-.4-.9V5a1.3,1.3,0,0,1,2.6,0V8.2l2.1,2.1a1.268,1.268,0,0,1,0,1.8,1.056,1.056,0,0,1-.9.5" fill="#1767a0"/>
    </g>
  </g>
</svg>
