<svg id="Learning_Culture" data-name="Learning Culture" xmlns="http://www.w3.org/2000/svg" xmlns:xlink="http://www.w3.org/1999/xlink" width="60.101" height="60.1" viewBox="0 0 60.101 60.1">
  <defs>
    <clipPath id="clip-path">
      <rect id="Rectangle_421" data-name="Rectangle 421" width="60.101" height="60.1" transform="translate(0 0)" fill="none"/>
    </clipPath>
  </defs>
  <g id="Group_698" data-name="Group 698" clip-path="url(#clip-path)">
    <path id="Path_422" data-name="Path 422" d="M7.5,51.4a6.278,6.278,0,0,1,4.4,1.8,6.28,6.28,0,0,1,1.8,4.4v1.3H1.3V57.6a6.1,6.1,0,0,1,6.2-6.2" fill="#30c5ef"/>
    <path id="Path_423" data-name="Path 423" d="M30,51.4a6.146,6.146,0,0,1,6.2,6.2v1.3H23.8V57.6A6.1,6.1,0,0,1,30,51.4" fill="#30c5ef"/>
    <path id="Path_424" data-name="Path 424" d="M52.5,51.4a6.146,6.146,0,0,1,6.2,6.2v1.3H46.3V57.6a6.1,6.1,0,0,1,6.2-6.2" fill="#30c5ef"/>
    <rect id="Rectangle_418" data-name="Rectangle 418" width="2.5" height="2.5" transform="translate(43.801 6.4)" fill="#30c5ef"/>
    <rect id="Rectangle_419" data-name="Rectangle 419" width="2.5" height="2.5" transform="translate(35 6.4)" fill="#30c5ef"/>
    <rect id="Rectangle_420" data-name="Rectangle 420" width="2.5" height="2.5" transform="translate(26.301 6.4)" fill="#30c5ef"/>
    <path id="Path_425" data-name="Path 425" d="M58.8,41.4H21.3a1.3,1.3,0,1,1,0-2.6H57.5V2.6H21.3A1.325,1.325,0,0,1,20,1.3,1.325,1.325,0,0,1,21.3,0H58.8a1.324,1.324,0,0,1,1.3,1.3V40.1a1.484,1.484,0,0,1-1.3,1.3" fill="#1767a0"/>
    <path id="Path_426" data-name="Path 426" d="M6.3,40.1A1.325,1.325,0,0,1,5,38.8v-15a1.3,1.3,0,0,1,2.6,0v15a1.484,1.484,0,0,1-1.3,1.3" fill="#1767a0"/>
    <path id="Path_427" data-name="Path 427" d="M16.3,40.1A1.325,1.325,0,0,1,15,38.8v-15a1.3,1.3,0,0,1,2.6,0v15a1.484,1.484,0,0,1-1.3,1.3" fill="#1767a0"/>
    <path id="Path_428" data-name="Path 428" d="M11.3,40.1A1.325,1.325,0,0,1,10,38.8V32.6a1.325,1.325,0,0,1,1.3-1.3,1.24,1.24,0,0,1,1.2,1.3v6.3a1.29,1.29,0,0,1-1.2,1.2" fill="#1767a0"/>
    <path id="Path_429" data-name="Path 429" d="M11.3,15.1A7.554,7.554,0,0,1,3.8,7.6a7.5,7.5,0,0,1,15,0,7.555,7.555,0,0,1-7.5,7.5m0-12.5a4.951,4.951,0,0,0-5,5,5,5,0,1,0,10,0,5.015,5.015,0,0,0-5-5" fill="#1767a0"/>
    <path id="Path_430" data-name="Path 430" d="M21.3,28.9h-5a1.3,1.3,0,1,1,0-2.6h3.8V23.8a4.441,4.441,0,0,0-.1-1.1,1.69,1.69,0,0,1,.3-1,1.084,1.084,0,0,1,.9-.4H32.5V18.8H19.1a1.387,1.387,0,0,1-1-.5A8.784,8.784,0,0,0,2.5,23.8v2.5H6.3a1.3,1.3,0,0,1,0,2.6h-5A1.325,1.325,0,0,1,0,27.6V23.8a11.53,11.53,0,0,1,3.3-8,11.261,11.261,0,0,1,16.4.5H33.8a1.324,1.324,0,0,1,1.3,1.3v5a1.324,1.324,0,0,1-1.3,1.3H22.5v3.7a1.309,1.309,0,0,1-1.2,1.3" fill="#1767a0"/>
    <path id="Path_431" data-name="Path 431" d="M51.3,36.4H25a1.3,1.3,0,0,1,0-2.6H51.3a1.324,1.324,0,0,1,1.3,1.3,1.4,1.4,0,0,1-1.3,1.3" fill="#1767a0"/>
    <path id="Path_432" data-name="Path 432" d="M13.8,60.1H1.3A1.325,1.325,0,0,1,0,58.8V57.6a7.5,7.5,0,0,1,15,0v1.3a1.29,1.29,0,0,1-1.2,1.2M2.5,57.6h10A4.691,4.691,0,0,0,11,54.1a4.688,4.688,0,0,0-3.5-1.5,4.951,4.951,0,0,0-5,5" fill="#1767a0"/>
    <path id="Path_433" data-name="Path 433" d="M7.5,52.6a5,5,0,0,1,0-10,5,5,0,0,1,0,10m0-7.5A2.5,2.5,0,1,0,10,47.6a2.476,2.476,0,0,0-2.5-2.5" fill="#1767a0"/>
    <path id="Path_434" data-name="Path 434" d="M36.3,60.1H23.8a1.325,1.325,0,0,1-1.3-1.3V57.6a7.5,7.5,0,0,1,15,0v1.3a1.29,1.29,0,0,1-1.2,1.2M25,57.6H35a4.691,4.691,0,0,0-1.5-3.5A5.089,5.089,0,0,0,30,52.6a4.951,4.951,0,0,0-5,5" fill="#1767a0"/>
    <path id="Path_435" data-name="Path 435" d="M30,52.6a5,5,0,1,1,5-5,4.951,4.951,0,0,1-5,5m0-7.5a2.5,2.5,0,1,0,2.5,2.5A2.476,2.476,0,0,0,30,45.1" fill="#1767a0"/>
    <path id="Path_436" data-name="Path 436" d="M58.8,60.1H46.3A1.325,1.325,0,0,1,45,58.8V57.6a7.5,7.5,0,0,1,15,0v1.3a1.29,1.29,0,0,1-1.2,1.2M47.5,57.6h10a5.127,5.127,0,0,0-5-5,4.951,4.951,0,0,0-5,5" fill="#1767a0"/>
    <path id="Path_437" data-name="Path 437" d="M52.5,52.6a5,5,0,1,1,5-5,4.951,4.951,0,0,1-5,5m0-7.5A2.5,2.5,0,1,0,55,47.6a2.476,2.476,0,0,0-2.5-2.5" fill="#1767a0"/>
  </g>
</svg>
