<svg id="Learn" xmlns="http://www.w3.org/2000/svg" width="67.156" height="80.417" viewBox="0 0 67.156 80.417">
  <path id="Path_53" data-name="Path 53" d="M52.328,3.049,44.135,12.09l5.085,2.261-4.1,2.965L33.541,25.651,40.32,14.067,35.8,12.09l1.976-2.826L43.71.93Z" transform="translate(13.643 0.379)" fill="#fff"/>
  <path id="Path_54" data-name="Path 54" d="M24.777,6.829a15.735,15.735,0,0,1,7.912,13.844A15.947,15.947,0,0,1,16.725,36.637a14.218,14.218,0,0,1-3.531-.425A15.887,15.887,0,0,1,16.725,4.851a14.249,14.249,0,0,1,8.052,1.978" transform="translate(0.367 1.966)" fill="#fff"/>
  <path id="Path_55" data-name="Path 55" d="M13.313,36.939a15.949,15.949,0,0,0,7.91-29.806A25.353,25.353,0,0,1,33.8,3.741,24.647,24.647,0,0,1,47.639,7.98l-2.117,2.967,4.519,1.978L43.4,24.508l11.583-8.335a22.11,22.11,0,0,1,2.543,10.172L61.06,40.47h-8.9V56.292H41.566v21.19H9.64V36.516a16.365,16.365,0,0,0,3.673.423" transform="translate(3.921 1.522)" fill="#30c5ef"/>
  <path id="Path_56" data-name="Path 56" d="M42.848,54.535h-8.9a1.412,1.412,0,1,1,0-2.825h7.487V37.3a1.334,1.334,0,0,1,1.412-1.412h7.063l-3.25-12.432v-.283a20.048,20.048,0,0,0-2.4-9.465A1.455,1.455,0,1,1,46.8,12.3a23.115,23.115,0,0,1,2.684,10.594l3.531,13.986a1.444,1.444,0,0,1-.283,1.272,1.742,1.742,0,0,1-1.13.564H44.118V53.123a1.228,1.228,0,0,1-1.27,1.412" transform="translate(13.234 4.691)" fill="#1767a0"/>
  <path id="Path_57" data-name="Path 57" d="M41.934,69.826H10.148a1.335,1.335,0,0,1-1.412-1.412V27.448a1.335,1.335,0,0,1,1.412-1.414,1.336,1.336,0,0,1,1.414,1.414V67H40.52V47.224a1.413,1.413,0,0,1,2.826,0v21.19a1.416,1.416,0,0,1-1.412,1.412" transform="translate(3.553 10.59)" fill="#1767a0"/>
  <path id="Path_58" data-name="Path 58" d="M44.615,9.942a2,2,0,0,1-.847-.283,23.464,23.464,0,0,0-13-3.954A24.762,24.762,0,0,0,18.907,8.812a1.455,1.455,0,1,1-1.414-2.543A27.056,27.056,0,0,1,30.771,2.738,26.293,26.293,0,0,1,45.323,7.117,1.39,1.39,0,0,1,45.746,9.1a1.185,1.185,0,0,1-1.131.847" transform="translate(6.805 1.114)" fill="#1767a0"/>
  <path id="Path_59" data-name="Path 59" d="M33.961,27.442a1.522,1.522,0,0,1-.989-.423,1.308,1.308,0,0,1-.284-1.7l5.934-10.171-3.108-1.272a1.642,1.642,0,0,1-.847-.847,1.5,1.5,0,0,1,.141-1.131L42.719.6A1.569,1.569,0,0,1,44.273.037l8.618,2.119a1.4,1.4,0,0,1,.988.989A1.744,1.744,0,0,1,53.6,4.557l-6.782,7.77,3.25,1.414a1.4,1.4,0,0,1,.847,1.13,1.535,1.535,0,0,1-.564,1.272l-15.68,11.3ZM38.339,11.9l2.967,1.272a1.275,1.275,0,0,1,.848.847,1.069,1.069,0,0,1-.142,1.131l-3.531,5.932,8.334-6.074-2.825-1.13a1.492,1.492,0,0,1-.847-.989,1.443,1.443,0,0,1,.281-1.272l6.64-7.345L44.7,3Z" transform="translate(13.221 0)" fill="#1767a0"/>
  <path id="Path_60" data-name="Path 60" d="M17.234,38.351a17.432,17.432,0,0,1-3.814-.425,16.648,16.648,0,0,1-9.607-6.073A17.024,17.024,0,0,1,0,20.977,17.243,17.243,0,0,1,17.376,3.741,18.23,18.23,0,0,1,25.993,6a17.508,17.508,0,0,1,8.758,14.975A17.762,17.762,0,0,1,17.234,38.351m0-31.784a14.519,14.519,0,0,0-3.108,28.677,12.088,12.088,0,0,0,3.25.423A14.558,14.558,0,0,0,24.721,8.545a15.234,15.234,0,0,0-7.487-1.978" transform="translate(0 1.522)" fill="#1767a0"/>
  <path id="Path_61" data-name="Path 61" d="M9.857,24.19H9.432a1.44,1.44,0,0,1-.848-.706L5.053,16.421a1.489,1.489,0,0,1,.566-1.837,1.486,1.486,0,0,1,1.834.566L10.279,20.8l12.854-8.052a1.431,1.431,0,1,1,1.556,2.4l-14.125,8.9a6.362,6.362,0,0,1-.706.141" transform="translate(2.01 5.089)" fill="#1767a0"/>
  <path id="Path_62" data-name="Path 62" d="M37.543,42.918H25.112a1.412,1.412,0,1,1,0-2.825H37.543a1.412,1.412,0,0,1,0,2.825" transform="translate(9.639 16.309)" fill="#1767a0"/>
  <path id="Path_63" data-name="Path 63" d="M16.376,65.619a1.335,1.335,0,0,1-1.414-1.412V37.791a1.413,1.413,0,1,1,2.826,0V64.207a1.334,1.334,0,0,1-1.412,1.412" transform="translate(6.086 14.797)" fill="#1767a0"/>
  <rect id="Rectangle_114" data-name="Rectangle 114" width="67.156" height="80.416" transform="translate(0 0.001)" fill="none"/>
</svg>
