<svg id="Leave_Policy" data-name="Leave Policy" xmlns="http://www.w3.org/2000/svg" xmlns:xlink="http://www.w3.org/1999/xlink" width="60.1" height="60.1" viewBox="0 0 60.1 60.1">
  <defs>
    <clipPath id="clip-path">
      <rect id="Rectangle_426" data-name="Rectangle 426" width="60.1" height="60.1" transform="translate(0 0)" fill="none"/>
    </clipPath>
  </defs>
  <g id="Group_700" data-name="Group 700" clip-path="url(#clip-path)">
    <path id="Path_438" data-name="Path 438" d="M11.3,6.4A6.3,6.3,0,1,1,5,12.7a6.274,6.274,0,0,1,6.3-6.3" fill="#30c5ef"/>
    <rect id="Rectangle_422" data-name="Rectangle 422" width="2.5" height="2.5" transform="translate(40 20.1)" fill="#1767a0"/>
    <rect id="Rectangle_423" data-name="Rectangle 423" width="2.5" height="2.5" transform="translate(33.8 20.1)" fill="#1767a0"/>
    <rect id="Rectangle_424" data-name="Rectangle 424" width="2.5" height="2.5" transform="translate(27.5 20.1)" fill="#1767a0"/>
    <rect id="Rectangle_425" data-name="Rectangle 425" width="2.5" height="2.5" transform="translate(10 27.6)" fill="#1767a0"/>
    <path id="Path_439" data-name="Path 439" d="M58.8,60.1H21.3a1.3,1.3,0,1,1,0-2.6H57.6V2.6H21.3A1.324,1.324,0,0,1,20,1.3,1.324,1.324,0,0,1,21.3,0H58.8a1.324,1.324,0,0,1,1.3,1.3V58.8a1.4,1.4,0,0,1-1.3,1.3" fill="#1767a0"/>
    <path id="Path_440" data-name="Path 440" d="M21.3,40.1h-5a1.3,1.3,0,1,1,0-2.6h3.8V28.7a8.878,8.878,0,0,0-8.8-8.8,8.813,8.813,0,0,0-8.8,8.8v8.9H6.3a1.3,1.3,0,0,1,0,2.6h-5A1.324,1.324,0,0,1,0,38.9v-10A11.288,11.288,0,0,1,11.3,17.6a11.534,11.534,0,0,1,8,3.3,11.355,11.355,0,0,1,3.3,8v10a1.389,1.389,0,0,1-1.3,1.2" fill="#1767a0"/>
    <path id="Path_441" data-name="Path 441" d="M6.3,56.4A1.324,1.324,0,0,1,5,55.1v-20a1.3,1.3,0,0,1,2.6,0v20a1.4,1.4,0,0,1-1.3,1.3" fill="#1767a0"/>
    <path id="Path_442" data-name="Path 442" d="M16.3,56.4A1.324,1.324,0,0,1,15,55.1v-20a1.3,1.3,0,0,1,2.6,0v20a1.4,1.4,0,0,1-1.3,1.3" fill="#1767a0"/>
    <path id="Path_443" data-name="Path 443" d="M11.3,56.4A1.324,1.324,0,0,1,10,55.1v-10a1.3,1.3,0,0,1,2.6,0v10a1.4,1.4,0,0,1-1.3,1.3" fill="#1767a0"/>
    <path id="Path_444" data-name="Path 444" d="M11.3,20.1a7.5,7.5,0,1,1,7.5-7.5,7.555,7.555,0,0,1-7.5,7.5m0-12.5a5,5,0,1,0,5,5,5.015,5.015,0,0,0-5-5" fill="#1767a0"/>
    <path id="Path_445" data-name="Path 445" d="M52.5,12.6H31.3a1.3,1.3,0,0,1,0-2.6H52.6a1.323,1.323,0,0,1,1.3,1.3,1.491,1.491,0,0,1-1.4,1.3" fill="#1767a0"/>
    <path id="Path_446" data-name="Path 446" d="M47.5,17.6a1.3,1.3,0,0,1-.8-2.3l5-4-5-4a1.363,1.363,0,0,1-.2-1.8,1.363,1.363,0,0,1,1.8-.2l6.3,5a1.233,1.233,0,0,1,.5,1,1.392,1.392,0,0,1-.5,1l-6.3,5a1.135,1.135,0,0,1-.8.3" fill="#1767a0"/>
    <path id="Path_447" data-name="Path 447" d="M53.8,55.1h-25a1.3,1.3,0,1,1,0-2.6h25a1.324,1.324,0,0,1,1.3,1.3,1.4,1.4,0,0,1-1.3,1.3" fill="#1767a0"/>
    <path id="Path_448" data-name="Path 448" d="M47.5,40.1a5,5,0,1,1,5-5,4.951,4.951,0,0,1-5,5m0-7.5A2.5,2.5,0,1,0,50,35.1a2.476,2.476,0,0,0-2.5-2.5" fill="#1767a0"/>
  </g>
</svg>
