<svg xmlns="http://www.w3.org/2000/svg" width="50.219" height="50.219" viewBox="0 0 50.219 50.219">
  <g id="LinkedIn" transform="translate(-4.925 4.954)">
    <g id="linkedin-2" data-name="linkedin" transform="translate(4.925 -4.954)">
      <path id="Linkedin-3" data-name="Linkedin" d="M25.109,50.219A25.109,25.109,0,1,0,0,25.109,25.11,25.11,0,0,0,25.109,50.219Z" fill="#1767a0" fill-rule="evenodd"/>
      <path id="Path_33" data-name="Path 33" d="M20.861,38.971V23.881H16.2v15.09Zm0-20.439a2.294,2.294,0,0,0-2.39-2.379,2.379,2.379,0,1,0-.056,4.758h.028A2.3,2.3,0,0,0,20.861,18.532ZM28.47,38.971v-8.6a3.5,3.5,0,0,1,.169-1.248,2.92,2.92,0,0,1,5.639,1.248v8.6h4.7V30.144c0-4.729-2.524-6.929-5.892-6.929a5.1,5.1,0,0,0-4.645,2.594l.034-2.018H23.782c.067,1.445,0,15.181,0,15.181Z" transform="translate(-1.403 -4.338)" fill="#fff" fill-rule="evenodd"/>
    </g>
  </g>
</svg>
